PathFileType	4	(X/Y/Z)	C:\Users\WrightLab\Desktop\Jo\P2_Trial14.trc
DataRate	CameraRate	NumFrames	NumMarkers	Units	OrigDataRate	OrigDataStartFrame	OrigNumFrames
100.00	100.00	       43	19	mm	100.00	1	       781
Frame#	Time	Headset_Front			Headset_Back			Headset_Left			Headset_Right			Left_Shoulder			Right_Shoulder			Sternum			C7			Left Elbow			Right Elbow			Left Wrist			Right Wrist			Left ASIS			Right ASIS			S2			Left Knee			Right Knee			Left Ankle			Right Ankle			
		X1	Y1	Z1	X2	Y2	Z2	X3	Y3	Z3	X4	Y4	Z4	X5	Y5	Z5	X6	Y6	Z6	X7	Y7	Z7	X8	Y8	Z8	X9	Y9	Z9	X10	Y10	Z10	X11	Y11	Z11	X12	Y12	Z12	X13	Y13	Z13	X14	Y14	Z14	X15	Y15	Z15	X16	Y16	Z16	X17	Y17	Z17	X18	Y18	Z18	X19	Y19	Z19	

1	0.000	-145.12718	1739.95398	2284.54419				-265.66412	1648.01685	2200.73438							-172.38333	1487.68860	2401.90869																									-211.70139	1000.25037	2468.34766	-377.24197	490.19766	2357.50879	58.48864	601.24768	2372.31055							
2	0.010	-140.15076	1739.45435	2280.88232				-260.77298	1648.09424	2197.41406							-167.90672	1487.34497	2397.65552																									-206.23055	999.69873	2464.82910	-372.57242	490.18967	2354.07617	63.36825	601.19666	2365.93140							
3	0.020	-134.63496	1739.40686	2276.65234				-255.86333	1648.19775	2193.69971							-163.53970	1487.35059	2394.41772																									-201.18358	998.90887	2460.13525	-367.48975	489.66788	2350.58716	67.79089	603.11310	2359.99780							
4	0.030	-129.24306	1739.15112	2272.21948				-250.72345	1648.41113	2189.93018							-158.78314	1487.34937	2390.14819																									-195.95064	998.90680	2456.80444	-362.33334	489.76804	2346.33911	72.57906	603.56274	2353.62451							
5	0.040	-123.87653	1739.32996	2268.29346				-245.69662	1648.45630	2186.31104							-154.33328	1487.64429	2386.80029																									-190.67906	998.60687	2451.70020	-356.69299	489.78226	2342.77930	77.62607	605.02820	2349.66138							
6	0.050	-118.54585	1739.88257	2263.60791				-240.27295	1648.83179	2181.62036							-149.38985	1488.06628	2382.81982																									-185.88608	998.97998	2448.95142	-350.89172	490.13409	2338.61304	82.60725	606.35028	2344.45483							
7	0.060	-113.31123	1740.41675	2259.53442				-234.91331	1649.40503	2176.98242							-144.37923	1488.38611	2378.72705																									-180.50148	999.03979	2444.01343	-344.61261	490.47949	2333.85840	87.09663	606.98163	2338.24805							
8	0.070	-108.10932	1741.08667	2255.12549				-230.36002	1649.74756	2173.85498							-139.28525	1489.00659	2374.71240																									-175.61610	999.96722	2440.41626	-338.16422	490.87939	2329.10840	92.31509	608.42828	2334.31738							
9	0.080	-103.06235	1741.79236	2250.83057				-225.09566	1650.21118	2169.43457							-134.59619	1489.46533	2371.60522																									-170.65839	1000.58411	2436.30371	-331.61145	491.39194	2324.22095	97.54269	608.95129	2329.27222							
10	0.090	-97.86336	1742.28711	2246.41626				-220.15709	1650.49390	2165.42993							-129.49474	1490.12939	2367.67285																									-165.88446	1001.35815	2433.06421	-324.68707	491.73544	2319.08911	102.30971	610.18402	2325.04736							
11	0.100	-92.89188	1742.88306	2242.20190				-215.62053	1651.02136	2162.06006							-124.39488	1490.66968	2363.87793																									-160.47610	1001.80994	2428.90015	-317.95450	492.17154	2314.47095	108.36009	610.78497	2320.70532							
12	0.110	-87.93619	1743.04395	2238.16870				-210.45712	1651.46790	2157.62939							-119.35368	1491.22192	2360.03247																									-155.62891	1002.67694	2426.07373	-310.68484	492.39499	2309.16870	112.00266	610.32129	2318.04712							
13	0.120	-83.26331	1743.67432	2234.33032				-206.17981	1651.85437	2154.88892							-114.40148	1491.62805	2356.61450																									-150.01912	1002.97864	2422.14038	-303.07724	492.39716	2302.54004	116.97382	611.03003	2314.87793							
14	0.130	-78.39285	1743.97644	2230.41943				-201.57289	1651.63147	2151.44727							-109.35473	1491.84741	2352.61523																									-144.56013	1003.74298	2419.01294	-294.64294	492.74469	2295.25244	121.79867	610.96619	2312.28198							
15	0.140	-73.45167	1743.98608	2226.19556				-196.77724	1651.81360	2147.54736							-104.35406	1492.08459	2348.69995																									-139.11447	1004.13202	2415.80835	-282.86475	490.87851	2288.82300	125.97693	611.39050	2309.84424							
16	0.150	-69.00143	1744.04822	2222.82153				-192.56206	1651.76672	2144.55273							-99.56506	1492.02588	2344.88379																									-134.01411	1004.68683	2413.26855	-270.75278	488.61407	2285.17944	130.67583	610.93256	2308.35669							
17	0.160	-64.50256	1744.09790	2219.05835				-188.03212	1651.80054	2140.92896							-94.52290	1491.64124	2340.82422																									-129.11038	1005.05188	2410.73755	-257.78296	487.55228	2271.01343	134.52240	611.05286	2306.69873							
18	0.170	-59.68171	1744.04041	2215.05444				-184.36812	1652.09241	2138.18628							-89.66586	1491.80542	2336.90869																									-123.96762	1004.86292	2406.98291	-245.15260	485.71954	2262.55200	138.99496	611.09503	2306.43945							
19	0.180	-55.43747	1743.72046	2211.42871				-179.67786	1651.90906	2133.96265							-85.45026	1492.25073	2333.76318																									-119.36132	1005.03180	2404.23267	-231.54980	482.87894	2254.31445	144.37346	609.26038	2304.93115							
20	0.190	-51.05016	1744.04578	2207.20337				-175.87035	1652.17310	2130.66724							-80.85995	1492.22974	2330.28735																									-115.12395	1004.99591	2401.13745	-223.78554	482.11615	2245.61206	147.61485	609.21869	2304.02881							
21	0.200	-46.64326	1743.85657	2203.23169				-171.66832	1651.83997	2126.74829							-76.64128	1492.82764	2326.16309																									-111.16992	1005.24658	2397.69702	-219.52695	486.69434	2230.09839	151.04573	609.79303	2305.47656							
22	0.210	-42.63554	1744.05652	2199.20190				-168.05511	1652.68018	2123.40381							-72.68649	1493.51135	2323.01782																									-107.58511	1005.38367	2394.56201	-214.78636	488.67535	2218.37158	153.27383	608.87103	2303.84180							
23	0.220	-38.37471	1744.30505	2194.39307				-163.80304	1652.36584	2118.91016							-67.96526	1494.07581	2318.95166																									-104.42230	1005.51459	2391.23779	-211.36635	490.77328	2203.25854	156.70177	608.61188	2304.34961							
24	0.230	-34.49450	1744.42786	2189.75781				-160.76813	1652.84705	2115.69971							-64.47424	1494.54761	2315.57910																109.11330	1484.61206	2240.81616							-101.43906	1005.90045	2387.96875	-205.80247	491.55930	2191.44189	158.58989	608.56158	2304.36108							
25	0.240	-30.54021	1744.86279	2185.31348				-156.52824	1652.58936	2111.03296							-60.51493	1495.29309	2311.41626																112.87716	1484.63220	2236.37915							-98.69428	1006.37604	2384.21216	-199.59334	491.19189	2179.07910	160.35268	609.05762	2303.70410							
26	0.250	-26.60472	1744.99890	2180.40479				-153.19429	1652.84778	2107.54028							-56.62619	1495.79712	2307.87109																116.64886	1485.28235	2233.10547							-95.67965	1006.33508	2380.32178	-192.74484	491.65637	2165.68359	161.41960	608.55792	2303.32446							
27	0.260	-22.99244	1745.54187	2176.13989				-150.02243	1653.39709	2104.01636							-52.52078	1496.48584	2304.30884																120.34624	1485.83691	2228.97534							-93.26064	1006.93823	2376.99658	-185.65605	492.50885	2151.28687	162.08998	608.15247	2303.22925							
28	0.270	-19.51911	1746.11865	2171.11279				-146.22533	1653.22241	2098.69604							-49.02530	1497.09363	2300.50879																124.22010	1486.47656	2224.49146							-91.03137	1007.52832	2373.63916	-179.19055	493.82489	2137.42578	162.26096	607.95026	2303.20801							
29	0.280	-16.10019	1746.53906	2166.66870				-143.37325	1653.49194	2095.07300							-44.88824	1497.58704	2295.57153																127.55083	1487.27087	2221.29370							-88.58128	1007.97394	2369.61035	-172.87662	495.91190	2123.52026	161.99922	607.37360	2300.97437							
30	0.290	-12.52968	1747.06934	2161.64404				-140.50783	1654.09668	2091.50830							-41.57955	1498.65466	2292.61304																131.56676	1488.03748	2216.83813							-86.27543	1008.39807	2365.61719	-165.35750	497.19504	2110.82153	162.03732	607.30103	2300.54126							
31	0.300	-9.34854	1747.38708	2156.91870				-137.00661	1653.74890	2087.23608							-37.23406	1499.20801	2288.56177																135.15549	1488.60840	2212.53906							-83.79906	1008.76776	2361.20264	-159.19864	500.01825	2099.11792	162.05994	606.95300	2299.07007							
32	0.310	-6.13925	1747.65100	2152.42993				-134.13618	1653.89038	2083.60645							-33.88974	1499.90784	2284.54785																138.62297	1489.70459	2209.61401							-81.75334	1009.19952	2357.76709	-153.99944	503.22162	2085.31299	162.22557	607.09900	2297.95288							
33	0.320	-2.99290	1748.19043	2147.91431				-130.93735	1654.50574	2079.64453							-30.14518	1499.92200	2280.26050																142.49545	1489.88538	2204.46362							-79.50414	1009.29749	2353.57813	-148.82359	507.02173	2072.63281	162.31068	606.60510	2296.71948							
34	0.330	0.29477	1748.29626	2143.03149				-128.33788	1654.66467	2076.21460							-26.47389	1500.27686	2276.78271																145.93794	1490.53638	2200.63843							-77.33410	1009.87378	2349.72729	-143.70735	510.56113	2063.10376	162.30994	606.66455	2295.13477							
35	0.340	3.45001	1748.47766	2138.52466				-125.46885	1654.76880	2072.35352							-22.39280	1500.82068	2272.18408																149.66615	1490.99255	2195.89966							-75.33459	1010.63721	2345.94287	-138.50122	513.36792	2051.79565	162.81377	606.21985	2293.65991							
36	0.350	6.48660	1748.81738	2134.13672				-122.67405	1654.81824	2068.57568							-18.67643	1501.42737	2268.54150																153.38907	1491.24182	2191.03271							-73.22994	1011.54639	2342.51025	-133.33989	516.48053	2044.29602	163.03017	605.85272	2292.07495							
37	0.360	9.90754	1748.74353	2129.15942				-119.65488	1654.62146	2064.24927							-15.40447	1501.46594	2264.65869																156.36745	1491.48572	2186.67798							-70.72761	1012.16577	2338.51685	-127.94730	518.22009	2036.07544	163.96809	605.85651	2290.37427							
38	0.370	12.80092	1748.89075	2124.59302				-116.55065	1654.53394	2059.90552							-11.81009	1501.84058	2260.30420																159.71410	1491.71924	2182.38892							-68.05433	1012.68073	2334.62305	-122.74979	519.54480	2028.47852	164.32419	606.42871	2287.30200							
39	0.380	15.63029	1749.07141	2120.36060				-114.38806	1654.64209	2056.43530							-8.34829	1501.69434	2256.02222																162.95685	1491.71399	2177.15405							-65.18766	1012.70355	2330.39258	-118.04583	521.52051	2022.12524	164.96999	606.60455	2285.78955							
40	0.390	18.63327	1749.35010	2115.90088				-111.55312	1654.66125	2052.03809							-4.42797	1501.22205	2250.50757																165.94345	1491.62793	2172.43115							-62.71741	1013.57928	2326.60693	-112.62106	521.17657	2016.59753	166.50009	606.11377	2282.99194							
41	0.400	21.37999	1749.29932	2111.20532				-109.15520	1655.07568	2048.59839							-1.46205	1502.10718	2246.39136																168.90880	1491.60559	2167.30737							-60.63654	1013.98315	2323.17603	-108.07149	521.73297	2011.38489	165.68047	605.72565	2281.93140							
42	0.410	24.42491	1749.51538	2106.25513				-106.59116	1654.74072	2044.54724							1.58590	1501.94824	2242.41846																171.77042	1491.40369	2162.58008							-58.04937	1014.57513	2318.89380	-103.98158	522.68719	2005.69189	166.54381	604.19391	2279.41260							
43	0.420	27.15175	1749.47620	2101.60596				-104.53880	1654.77039	2040.60413							4.95076	1501.85864	2237.15771																174.86986	1491.26782	2157.10376							-55.73289	1014.91382	2314.79590	-98.96674	522.79071	2002.31372	167.41142	604.53937	2278.08765							
